<?xml version="1.0" standalone="no"?>
<!DOCTYPE svg PUBLIC "-//W3C//DTD SVG 20010904//EN"
 "http://www.w3.org/TR/2001/REC-SVG-20010904/DTD/svg10.dtd">
<svg version="1.0" xmlns="http://www.w3.org/2000/svg"
 width="700.000000pt" height="700.000000pt" viewBox="0 0 700.000000 700.000000"
 preserveAspectRatio="xMidYMid meet">
<metadata>
Created by potrace 1.11, written by Peter Selinger 2001-2013
</metadata>
<g transform="translate(0.000000,700.000000) scale(0.100000,-0.100000)"
fill="#000000" stroke="none">
<path d="M3165 6243 c-78 -17 -168 -97 -215 -189 -21 -42 -24 -64 -25 -149 -1
-128 10 -223 35 -306 37 -124 80 -147 159 -84 55 44 84 49 232 41 133 -7 151
-2 168 44 9 27 6 40 -20 95 -37 80 -40 90 -44 196 -3 104 -16 131 -88 179 -41
29 -53 44 -67 85 -12 35 -27 57 -50 73 -32 22 -45 24 -85 15z"/>
<path d="M3725 5867 c-42 -19 -97 -84 -93 -110 4 -26 111 -87 153 -87 47 0
118 40 136 78 22 42 15 67 -28 99 -41 32 -121 41 -168 20z"/>
<path d="M4051 5626 c-30 -32 -40 -106 -17 -125 27 -23 110 -9 159 27 56 40
59 79 7 104 -53 27 -121 24 -149 -6z"/>
<path d="M3468 5378 c-85 -43 -116 -64 -178 -128 -41 -42 -90 -87 -109 -100
l-33 -23 6 -66 7 -66 -41 -40 c-73 -72 -74 -163 -4 -309 26 -53 34 -83 34
-124 0 -41 9 -71 39 -135 21 -45 45 -107 51 -137 16 -70 49 -134 94 -184 20
-22 36 -42 37 -45 0 -3 1 -44 3 -91 2 -59 9 -102 24 -141 24 -60 75 -137 95
-144 182 -56 201 -60 399 -71 149 -8 213 4 264 48 27 24 45 31 84 33 33 2 63
11 85 26 37 25 46 43 51 97 1 17 15 49 31 70 36 46 61 107 69 169 6 55 19 83
39 83 18 0 19 -14 3 -43 -6 -12 -12 -60 -13 -107 -1 -60 -6 -92 -17 -110 -25
-37 -29 -78 -12 -119 8 -20 15 -54 16 -75 0 -30 8 -47 28 -68 16 -15 35 -28
44 -28 8 0 32 -10 53 -21 21 -12 50 -25 64 -29 59 -17 120 59 104 131 -9 40 9
82 62 145 24 28 43 61 43 73 0 12 -11 42 -26 66 -37 64 -39 90 -9 141 28 48
42 135 27 174 -7 18 -5 39 5 72 18 55 12 104 -18 142 -18 23 -28 26 -81 26
-88 0 -110 -17 -163 -127 -27 -55 -45 -106 -45 -127 0 -39 -11 -50 -40 -41
-24 8 -26 50 -7 135 13 59 14 85 4 140 -4 19 -9 60 -13 90 -8 76 -29 137 -69
205 -19 32 -35 59 -35 61 0 12 -141 220 -188 278 -83 101 -190 172 -349 232
-37 14 -77 34 -88 44 -29 25 -75 47 -115 54 -107 17 -104 18 -212 -36z"/>
<path d="M4972 5059 c-12 -5 -22 -12 -23 -16 0 -4 -2 -17 -4 -28 -2 -11 5 -33
15 -50 11 -17 18 -44 17 -59 -2 -22 3 -29 20 -32 30 -5 83 19 116 53 32 34 40
62 23 84 -21 29 -130 60 -164 48z"/>
<path d="M2178 5035 c-1 -1 -23 -5 -48 -8 -51 -6 -106 -27 -238 -90 -79 -38
-98 -51 -132 -98 -48 -66 -69 -110 -80 -168 -6 -31 -18 -53 -43 -76 -37 -34
-41 -46 -53 -165 -3 -36 -8 -74 -10 -85 -13 -68 -20 -141 -19 -208 2 -76 3
-79 98 -269 107 -215 149 -277 221 -322 26 -17 78 -61 115 -97 65 -66 175
-143 238 -168 17 -7 69 -16 114 -20 92 -8 153 7 211 51 18 14 51 31 73 38 59
18 123 62 187 127 66 67 79 95 83 183 2 36 7 94 10 130 4 42 2 76 -6 95 -19
49 -21 290 -2 357 19 71 14 94 -41 161 -67 83 -71 93 -71 192 0 79 -4 97 -28
148 -30 60 -57 81 -118 92 -19 3 -58 25 -87 48 -125 98 -199 134 -292 143 -30
3 -60 7 -67 9 -6 2 -13 2 -15 0z"/>
<path d="M5710 5013 c-190 -49 -334 -178 -409 -365 -26 -65 -39 -70 -98 -38
-38 20 -71 24 -109 14 -28 -7 -74 -81 -74 -119 0 -51 12 -59 79 -58 75 2 93
-15 93 -85 -1 -35 -13 -78 -42 -146 -60 -141 -55 -203 25 -301 31 -37 35 -48
30 -78 -5 -26 1 -54 25 -113 34 -84 38 -122 21 -167 -18 -45 -13 -101 10 -131
30 -38 147 -112 204 -129 65 -18 82 -15 174 34 42 23 94 51 116 63 49 25 113
72 140 102 161 175 170 186 204 247 22 40 89 252 117 372 22 92 24 257 5 293
-6 11 -26 81 -46 156 -20 75 -44 158 -54 184 -86 214 -235 311 -411 265z"/>
<path d="M3143 3828 c-70 -15 -113 -101 -67 -135 24 -17 128 -17 162 1 43 22
65 52 59 78 -12 44 -83 70 -154 56z"/>
<path d="M4375 3366 c-22 -7 -76 -30 -120 -51 -79 -39 -82 -39 -185 -37 -217
5 -328 -68 -344 -227 -9 -90 -50 -131 -110 -111 -24 8 -40 24 -60 59 -25 46
-53 68 -111 85 -11 3 -71 8 -132 11 -110 6 -114 6 -165 -22 -28 -15 -74 -49
-100 -75 l-49 -47 7 -73 c3 -40 8 -80 9 -88 2 -8 6 -46 10 -85 4 -38 9 -79 11
-90 2 -11 -7 -42 -20 -70 -14 -27 -27 -66 -30 -85 -11 -65 -41 -99 -120 -135
-40 -18 -84 -44 -97 -57 -32 -32 -106 -81 -146 -97 -63 -25 -91 -81 -76 -153
6 -32 24 -44 74 -53 19 -3 40 -12 46 -18 19 -18 -10 -55 -61 -78 -63 -29 -81
-25 -98 20 -47 118 -226 90 -271 -43 -16 -46 -15 -61 12 -166 11 -41 27 -110
36 -152 16 -75 28 -104 93 -219 40 -72 53 -150 35 -215 -24 -88 -24 -133 -1
-185 38 -90 137 -152 263 -164 38 -4 72 -8 76 -10 14 -9 142 -19 229 -19 149
2 241 18 320 59 51 26 85 38 150 54 80 19 103 22 220 27 206 8 315 13 330 17
8 2 42 9 75 16 33 7 102 35 154 63 112 60 177 71 260 43 114 -38 244 -19 307
44 18 19 46 59 61 89 32 63 44 70 315 182 123 51 158 114 103 186 -38 50 -45
75 -30 111 17 40 50 70 94 84 56 18 99 55 110 96 9 30 6 48 -13 103 -25 73
-24 84 17 129 41 46 67 102 63 136 -2 17 -4 35 -5 41 0 5 -21 34 -45 62 -32
37 -44 61 -44 81 2 57 -113 230 -185 280 -62 42 -105 50 -262 47 -145 -2 -138
-1 -228 -53 -39 -22 -62 4 -57 64 0 12 -6 35 -14 51 -8 16 -18 45 -22 63 -3
19 -7 41 -9 49 -4 25 24 69 48 75 12 3 58 7 101 8 76 2 78 3 112 40 30 33 35
44 32 80 -4 59 -28 70 -139 62 -133 -8 -147 3 -165 130 -9 69 -29 102 -69 119
-50 21 -143 27 -190 12z m411 -1059 c12 -17 27 -63 34 -102 6 -38 29 -115 50
-170 47 -122 66 -210 50 -229 -13 -17 -44 -26 -58 -17 -5 3 -14 30 -21 58 -6
29 -22 75 -36 102 -14 27 -28 62 -31 77 -10 59 -36 124 -50 124 -7 0 -23 -13
-36 -30 -23 -32 -54 -38 -90 -19 -27 15 -44 -2 -29 -29 6 -11 18 -54 26 -94 8
-40 28 -102 44 -138 37 -82 41 -109 18 -124 -34 -22 -102 38 -111 99 -10 64
-19 121 -22 139 -2 10 -14 40 -28 65 -30 58 -56 142 -63 200 l-5 44 37 -6 c22
-4 52 -20 76 -42 32 -28 47 -36 72 -33 28 3 36 10 62 65 34 70 61 104 78 97 7
-2 22 -19 33 -37z m-571 -159 c18 -122 52 -130 100 -25 22 47 31 57 51 57 44
0 46 -35 6 -110 -19 -36 -41 -76 -49 -90 -25 -48 -27 -91 -5 -134 88 -173 94
-208 44 -227 -32 -12 -52 -5 -52 18 0 10 -15 50 -34 89 -18 39 -37 86 -41 105
-12 56 -33 77 -113 114 -84 40 -132 71 -132 86 0 5 9 18 20 29 24 24 40 19
101 -32 57 -48 84 -51 75 -7 -3 17 -17 58 -31 92 -27 66 -23 77 27 77 23 0 27
-5 33 -42z m-323 -219 c71 -36 84 -53 60 -81 -13 -16 -17 -16 -66 3 -28 12
-56 25 -63 31 -30 25 -30 -3 2 -72 19 -41 35 -91 35 -110 0 -19 9 -48 20 -65
11 -16 20 -39 20 -51 0 -11 3 -24 7 -28 4 -3 8 -22 10 -40 2 -30 -1 -36 -26
-44 -42 -15 -67 6 -75 62 -4 25 -14 60 -23 78 -9 18 -16 55 -16 82 1 39 -7 63
-34 113 -19 35 -38 63 -42 63 -5 0 -23 -29 -41 -65 -33 -66 -49 -76 -81 -52
-21 16 -16 44 15 76 13 14 39 64 56 111 42 116 49 120 119 66 31 -24 86 -58
123 -77z m-572 -65 c41 -4 102 -7 135 -8 l60 -1 2 -33 c2 -44 -11 -48 -118
-34 -59 8 -96 9 -114 2 -24 -9 -25 -13 -19 -47 3 -21 10 -42 15 -47 5 -5 63
-11 130 -12 67 -1 125 -6 130 -11 5 -5 11 -23 12 -39 l2 -29 -118 3 -119 3 8
-23 c4 -13 15 -39 25 -58 11 -19 19 -51 19 -70 1 -19 7 -46 15 -60 8 -14 14
-39 15 -56 0 -26 -5 -33 -25 -36 -30 -6 -65 28 -65 63 0 14 -9 42 -20 64 -11
22 -20 49 -20 60 0 33 -41 146 -67 186 -13 20 -28 64 -34 99 -5 35 -13 68 -16
73 -9 15 17 25 56 21 20 -2 70 -6 111 -10z m-330 -124 c28 -16 60 -38 71 -49
11 -10 33 -21 49 -25 30 -6 61 -50 53 -73 -7 -19 -47 -16 -74 5 -38 28 -98 57
-104 50 -4 -3 5 -29 19 -57 14 -28 26 -60 26 -72 0 -12 14 -48 30 -81 17 -32
30 -71 30 -86 0 -15 8 -48 17 -75 18 -51 14 -62 -29 -72 -38 -10 -50 16 -83
165 -15 69 -38 147 -51 174 -13 28 -24 56 -24 63 0 7 -4 13 -9 13 -16 0 -61
-65 -61 -87 0 -10 -6 -28 -14 -38 -12 -17 -18 -18 -40 -7 -31 14 -34 42 -6 67
11 10 25 36 31 59 6 22 23 58 38 81 15 22 30 48 34 58 9 25 39 21 97 -13z"/>
<path d="M1153 3293 c-133 -31 -161 -111 -60 -175 113 -72 273 -54 291 33 9
48 -4 104 -31 133 -22 24 -31 27 -85 24 -33 -2 -84 -9 -115 -15z"/>
<path d="M5000 2968 c-23 -22 -23 -23 -10 -49 13 -23 41 -24 80 -4 34 18 52
46 41 64 -11 18 -88 11 -111 -11z"/>
<path d="M1250 2919 c-78 -7 -132 -23 -153 -47 -21 -23 -105 -263 -108 -310
-2 -20 -13 -55 -25 -77 -34 -62 -21 -99 70 -204 31 -35 59 -74 62 -85 4 -12
29 -52 57 -91 28 -38 71 -110 95 -160 95 -193 278 -314 407 -269 22 7 63 14
90 14 60 1 212 33 253 54 17 9 35 29 41 47 6 17 24 46 41 65 16 19 30 40 31
47 0 7 2 19 3 27 2 8 6 41 10 72 8 65 29 88 81 88 62 0 95 26 89 68 -1 6 -2
21 -3 32 0 10 -13 31 -28 45 -24 22 -36 25 -81 24 -66 -3 -89 17 -144 125 -97
193 -140 260 -209 326 -38 37 -94 79 -124 94 -30 14 -62 38 -71 51 -35 54 -75
67 -202 69 -64 0 -146 -2 -182 -5z"/>
<path d="M4665 870 c-36 -58 -17 -125 34 -117 40 7 89 34 101 57 18 33 -27 70
-84 70 -25 0 -48 -5 -51 -10z"/>
</g>
</svg>
